<?xml version="1.0" encoding="UTF-8" standalone="no"?>
<svg width="107px" height="107px" viewBox="0 0 107 107" version="1.1" xmlns="http://www.w3.org/2000/svg" xmlns:xlink="http://www.w3.org/1999/xlink">
    <!-- Generator: Sketch 39.1 (31720) - http://www.bohemiancoding.com/sketch -->
    <title>Group 5</title>
    <desc>Created with Sketch.</desc>
    <defs></defs>
    <g id="Page-1" stroke="none" stroke-width="1" fill="none" fill-rule="evenodd">
        <g id="Home" transform="translate(-1142.000000, -620.000000)">
            <g id="Group-5" transform="translate(1143.000000, 621.000000)">
                <polygon id="Fill-1" fill="#FEFEFE" points="32.2358031 48.9005801 72.3833292 48.9005801 72.3833292 38.8131765 32.2358031 38.8131765"></polygon>
                <polygon id="Stroke-2" stroke="#CB511E" stroke-width="3" points="32.2358031 48.9005801 72.3833292 48.9005801 72.3833292 38.8131765 32.2358031 38.8131765"></polygon>
                <polygon id="Fill-3" fill="#FEFEFE" points="34.383556 71.8131765 70.2338401 71.8131765 70.2338401 48.9005801 34.383556 48.9005801"></polygon>
                <polygon id="Stroke-4" stroke="#CB511E" stroke-width="3" points="34.383556 71.8131765 70.2338401 71.8131765 70.2338401 48.9005801 34.383556 48.9005801"></polygon>
                <polygon id="Fill-5" fill="#FEFEFE" points="48.740685 71.8131765 55.8784474 71.8131765 55.8784474 38.8131765 48.740685 38.8131765"></polygon>
                <polygon id="Stroke-6" stroke="#CB511E" stroke-width="3" points="48.740685 71.8131765 55.8784474 71.8131765 55.8784474 38.8131765 48.740685 38.8131765"></polygon>
                <g id="Group-17" transform="translate(0.000000, 0.471706)">
                    <path d="M52.3097571,37.0919412 L45.7234399,27.2673824 C38.6177031,18.7007647 31.6437308,30.8003235 35.3121319,33.9547353 C38.0753679,36.3310588 45.3911641,36.3042941 52.3097571,37.0919412" id="Fill-7" fill="#FEFEFE"></path>
                    <path d="M52.3097571,37.0919412 L45.7234399,27.2673824 C38.6177031,18.7007647 31.6437308,30.8003235 35.3121319,33.9547353 C38.0753679,36.3310588 45.3911641,36.3042941 52.3097571,37.0919412 L52.3097571,37.0919412 Z" id="Stroke-9" stroke="#CB511E" stroke-width="3"></path>
                    <path d="M52.3097571,37.0919412 L58.8960743,27.2673824 C66.0018111,18.7007647 72.9757834,30.8003235 69.3073823,33.9547353 C66.5422367,36.3310588 59.2283501,36.3042941 52.3097571,37.0919412" id="Fill-11" fill="#FEFEFE"></path>
                    <path d="M52.3097571,37.0919412 L58.8960743,27.2673824 C66.0018111,18.7007647 72.9757834,30.8003235 69.3073823,33.9547353 C66.5422367,36.3310588 59.2283501,36.3042941 52.3097571,37.0919412 L52.3097571,37.0919412 Z" id="Stroke-13" stroke="#CB511E" stroke-width="3"></path>
                    <path d="M52.3097571,103.221603 C80.7059695,103.221603 103.724661,80.1771912 103.724661,51.74925 C103.724661,23.3232206 80.7059695,0.276897059 52.3097571,0.276897059 C23.9135447,0.276897059 0.894853069,23.3232206 0.894853069,51.74925 C0.894853069,80.1771912 23.9135447,103.221603 52.3097571,103.221603 L52.3097571,103.221603 Z" id="Stroke-15" stroke="#65003D" stroke-width="3"></path>
                </g>
            </g>
        </g>
    </g>
</svg>