<?xml version="1.0" encoding="UTF-8" standalone="no"?>
<svg
   xmlns:dc="http://purl.org/dc/elements/1.1/"
   xmlns:cc="http://creativecommons.org/ns#"
   xmlns:rdf="http://www.w3.org/1999/02/22-rdf-syntax-ns#"
   xmlns:svg="http://www.w3.org/2000/svg"
   xmlns="http://www.w3.org/2000/svg"
   viewBox="0 0 456.72501 167.075"
   height="167.075"
   width="456.72501"
   xml:space="preserve"
   version="1.1"
   id="svg2"><metadata
     id="metadata8"><rdf:RDF><cc:Work
         rdf:about=""><dc:format>image/svg+xml</dc:format><dc:type
           rdf:resource="http://purl.org/dc/dcmitype/StillImage" /></cc:Work></rdf:RDF></metadata><defs
     id="defs6" /><g
     transform="matrix(1.25,0,0,-1.25,0,167.075)"
     id="g10"><g
       transform="scale(0.1,0.1)"
       id="g12"><path
         id="path14"
         style="fill:#5d0632;fill-opacity:1;fill-rule:nonzero;stroke:none"
         d="m 776.348,599.336 c -23.645,30.738 -62.657,47.879 -101.078,47.879 -93.985,0 -156.051,-75.07 -156.051,-170.238 0,-88.067 58.519,-163.145 156.051,-163.145 47.878,0 84.527,21.289 109.355,56.152 L 832.5,333.93 c -12.41,-17.129 -62.656,-73.282 -158.414,-73.282 -132.992,0 -215.156,111.114 -215.156,216.329 0,130.043 89.254,223.437 218.117,223.437 54.969,0 112.894,-20.687 146.59,-65.023 l -47.289,-36.055" /><path
         id="path16"
         style="fill:#5d0632;fill-opacity:1;fill-rule:nonzero;stroke:none"
         d="m 1254.54,480.531 c 0,91.614 -62.06,166.684 -157.82,166.684 -95.76,0 -157.829,-75.07 -157.829,-166.684 0,-91.621 62.069,-166.699 157.829,-166.699 95.76,0 157.82,75.078 157.82,166.699 z m -375.935,0 c 0,124.125 90.434,219.883 218.115,219.883 127.67,0 218.11,-95.758 218.11,-219.883 0,-124.14 -90.44,-219.883 -218.11,-219.883 -127.681,0 -218.115,95.743 -218.115,219.883" /><path
         id="path18"
         style="fill:#5d0632;fill-opacity:1;fill-rule:nonzero;stroke:none"
         d="m 1691.35,599.336 c -23.64,30.738 -62.66,47.879 -101.08,47.879 -93.99,0 -156.05,-75.07 -156.05,-170.238 0,-88.067 58.52,-163.145 156.05,-163.145 47.88,0 84.52,21.289 109.35,56.152 l 47.88,-36.054 c -12.42,-17.129 -62.66,-73.282 -158.41,-73.282 -133,0 -215.16,111.114 -215.16,216.329 0,130.043 89.25,223.437 218.12,223.437 54.97,0 112.9,-20.687 146.59,-65.023 l -47.29,-36.055" /><path
         id="path20"
         style="fill:#5d0632;fill-opacity:1;fill-rule:nonzero;stroke:none"
         d="m 1843.26,271.27 56.7383,0 0,418.504 -56.7383,0 0,-418.504 z" /><path
         id="path22"
         style="fill:#5d0632;fill-opacity:1;fill-rule:nonzero;stroke:none"
         d="m 2011.13,689.773 74.48,0 230.53,-344.007 1.18,0 0,344.007 56.74,0 0,-418.503 -72.11,0 -232.89,344.023 -1.18,0 0,-344.023 -56.75,0 0,418.503" /><path
         id="path24"
         style="fill:#5d0632;fill-opacity:1;fill-rule:nonzero;stroke:none"
         d="m 2726.93,424.379 -78.03,192.101 -1.18,0 -79.2,-192.101 158.41,0 z m -101.67,265.394 51.42,0 179.11,-418.503 -66.21,0 -41.96,103.441 -199.2,0 -41.37,-103.441 -66.21,0 184.42,418.503" /><path
         id="path26"
         style="fill:#5d0632;fill-opacity:1;fill-rule:nonzero;stroke:none"
         d="m 0,675.699 50.375,0 0,-324.289 170.543,0 0,-47.23 -220.918,0 0,371.519" /><path
         id="path28"
         style="fill:#5d0632;fill-opacity:1;fill-rule:nonzero;stroke:none"
         d="m 296.379,605.723 -8.785,0 c -23.199,0 -63.27,-1.758 -63.27,-26.008 0,-15.469 15.817,-22.149 29.524,-22.149 28.824,0 42.531,15.118 42.531,38.672 l 0,9.485 z m 2.461,-52.375 -1.059,0 c -11.945,-18.973 -31.629,-27.414 -54.125,-27.414 -31.285,0 -61.511,17.23 -61.511,50.617 0,54.836 63.972,58.703 106.152,58.703 l 10.543,0 0,4.566 c 0,20.735 -16.168,31.633 -38.664,31.633 -17.574,0 -33.746,-7.031 -44.988,-17.578 l -22.145,22.148 c 18.629,18.981 44.988,27.063 71.703,27.063 72.055,0 72.055,-52.023 72.055,-75.918 l 0,-97.016 -37.961,0 0,23.196" /><path
         id="path30"
         style="fill:#5d0632;fill-opacity:1;fill-rule:nonzero;stroke:none"
         d="m 177.98,451.938 171.477,0 0,38.8281 -171.477,0 0,-38.8281 z" /><path
         id="path32"
         style="fill:#5d0632;fill-opacity:1;fill-rule:nonzero;stroke:none"
         d="M 114.047,63.5586 C 101.918,46.8984 85.2578,40.1992 66.4297,40.1992 c -39.1094,0 -66.27345,28.2422 -66.27345,67.3598 0,39.101 27.16405,67.351 66.27345,67.351 17.3828,0 32.957,-5.789 44.1793,-20.101 l -9.781,-8.149 c -7.9608,11.961 -21.5467,17.391 -34.3983,17.391 -33.5,0 -54.3203,-24.629 -54.3203,-56.492 0,-31.8676 20.8203,-56.5004 54.3203,-56.5004 12.8516,0 28.7891,6.1523 37.8433,19.9219 l 9.774,-7.4219" /><path
         id="path34"
         style="fill:#5d0632;fill-opacity:1;fill-rule:nonzero;stroke:none"
         d="m 212.551,67 c 0,-6.1602 0.902,-19.1992 0.902,-23.5391 l -10.859,0 c -0.188,6.1485 -0.367,13.0274 -0.731,14.668 l -0.539,0 c -4.347,-9.2383 -15.031,-16.8398 -28.609,-16.8398 -26.074,0 -31.871,17.7422 -31.871,36.0195 l 0,49.8004 10.867,0 0,-49.2574 c 0,-13.5703 3.801,-26.793 21.004,-26.793 16.113,0 28.969,11.2305 28.969,34.2227 l 0,41.8277 10.867,0 0,-60.109" /><path
         id="path36"
         style="fill:#5d0632;fill-opacity:1;fill-rule:nonzero;stroke:none"
         d="m 248.586,43.4609 10.8633,0 0,136.871 -10.8633,0 0,-136.871 z" /><path
         id="path38"
         style="fill:#5d0632;fill-opacity:1;fill-rule:nonzero;stroke:none"
         d="m 345.453,117.332 -23.898,0 0,-54.5 c 0,-7.4218 4.343,-11.7734 11.59,-11.7734 4.164,0 8.511,1.2734 12.308,2.8906 l 0.91,-9.7695 c -3.984,-1.4414 -9.961,-2.8906 -14.129,-2.8906 -15.57,0 -21.546,9.5898 -21.546,21.5429 l 0,54.5 -18.106,0 0,9.777 18.106,0 0,24.082 10.867,0 0,-24.082 23.898,0 0,-9.777" /><path
         id="path40"
         style="fill:#5d0632;fill-opacity:1;fill-rule:nonzero;stroke:none"
         d="m 381.848,127.109 10.863,0 0,-83.6481 -10.863,0 0,83.6481 z m 5.433,41.289 c 4.528,0 8.149,-3.628 8.149,-8.16 0,-4.508 -3.621,-8.148 -8.149,-8.148 -4.527,0 -8.148,3.64 -8.148,8.148 0,4.532 3.621,8.16 8.148,8.16" /><path
         id="path42"
         style="fill:#5d0632;fill-opacity:1;fill-rule:nonzero;stroke:none"
         d="m 421.504,127.109 12.312,0 27.887,-71.8902 27.16,71.8902 11.043,0 -32.953,-83.6481 -11.226,0 -34.223,83.6481" /><path
         id="path44"
         style="fill:#5d0632;fill-opacity:1;fill-rule:nonzero;stroke:none"
         d="m 566.539,85.4688 c -18.105,0 -36.211,-4.5274 -36.211,-18.8477 0,-10.3125 9.953,-15.5625 19.012,-15.5625 23.176,0 29.152,14.8398 29.152,28.793 l 0,5.6172 -11.953,0 z m 21.727,-6.8868 c 0,-16.2929 0.367,-25.5312 1.632,-35.1211 l -10.136,0 c -0.731,4.1602 -1.09,8.8711 -1.09,13.5704 l -0.359,0 c -6.161,-10.6797 -15.211,-15.7422 -29.336,-15.7422 -14.305,0 -29.512,7.0507 -29.512,24.8125 0,25.5195 29.875,28.0586 46.351,28.0586 l 12.676,0 0,5.0586 c 0,14.4922 -10.14,20.2812 -23.543,20.2812 -9.773,0 -18.101,-3.07 -25.531,-9.418 l -6.332,7.418 c 7.965,7.621 21,11.781 31.863,11.781 20.281,0 33.317,-9.043 33.317,-30.2302 l 0,-20.4688" /><path
         id="path46"
         style="fill:#5d0632;fill-opacity:1;fill-rule:nonzero;stroke:none"
         d="m 668.844,117.332 -23.903,0 0,-54.5 c 0,-7.4218 4.344,-11.7734 11.59,-11.7734 4.168,0 8.512,1.2734 12.313,2.8906 l 0.906,-9.7695 c -3.984,-1.4414 -9.961,-2.8906 -14.125,-2.8906 -15.57,0 -21.547,9.5898 -21.547,21.5429 l 0,54.5 -18.105,0 0,9.777 18.105,0 0,24.082 10.863,0 0,-24.082 23.903,0 0,-9.777" /><path
         id="path48"
         style="fill:#5d0632;fill-opacity:1;fill-rule:nonzero;stroke:none"
         d="m 706.145,127.109 10.863,0 0,-83.6481 -10.863,0 0,83.6481 z m 5.433,41.289 c 4.527,0 8.149,-3.628 8.149,-8.16 0,-4.508 -3.622,-8.148 -8.149,-8.148 -4.527,0 -8.148,3.64 -8.148,8.148 0,4.532 3.621,8.16 8.148,8.16" /><path
         id="path50"
         style="fill:#5d0632;fill-opacity:1;fill-rule:nonzero;stroke:none"
         d="m 755.758,103.582 c 0,6.148 -0.91,19.18 -0.91,23.527 l 10.867,0 c 0.18,-6.148 0.359,-13.039 0.726,-14.668 l 0.539,0 c 4.348,9.239 15.032,16.84 28.61,16.84 26.074,0 31.867,-17.73 31.867,-36.031 l 0,-49.7891 -10.859,0 0,49.2383 c 0,13.5898 -3.805,26.8008 -21.008,26.8008 -16.113,0 -28.969,-11.219 -28.969,-34.2187 l 0,-41.8204 -10.863,0 0,60.1211" /><path
         id="path52"
         style="fill:#5d0632;fill-opacity:1;fill-rule:nonzero;stroke:none"
         d="m 898.438,119.5 c -18.286,0 -33.133,-14.852 -33.133,-33.1289 0,-18.2813 14.847,-33.1406 33.133,-33.1406 18.292,0 33.132,14.8593 33.132,33.1406 0,18.2769 -14.84,33.1289 -33.132,33.1289 z M 942.074,48.8906 C 942.074,7.25 914.555,0 897.535,0 880.691,0 864.578,6.53125 856.07,17.5586 l 8.508,7.9727 c 7.606,-10.6797 19.918,-15.76177 32.957,-15.76177 33.133,0 33.676,28.98047 33.676,38.40237 l 0,11.5781 -0.359,0 c -6.34,-9.9609 -17.383,-16.2891 -31.692,-16.2891 -24.625,0 -44.722,19.3711 -44.722,42.9102 0,23.5389 20.097,42.9099 44.722,42.9099 14.309,0 25.352,-6.332 31.692,-16.293 l 0.359,0 0,14.121 10.863,0 0,-78.2184" /><path
         id="path54"
         style="fill:#5d0632;fill-opacity:1;fill-rule:nonzero;stroke:none"
         d="m 1066.47,171.641 76.77,0 0,-10.86 -64.82,0 0,-45.621 60.3,0 0,-10.859 -60.3,0 0,-60.8401 -11.95,0 0,128.1801" /><path
         id="path56"
         style="fill:#5d0632;fill-opacity:1;fill-rule:nonzero;stroke:none"
         d="m 1210.42,51.0586 c 20.46,0 33.13,15.3906 33.13,34.2227 0,18.8207 -12.67,34.2187 -33.13,34.2187 -20.46,0 -33.14,-15.398 -33.14,-34.2187 0,-18.8321 12.68,-34.2227 33.14,-34.2227 z m 0,78.2224 c 25.71,0 44,-18.48 44,-43.9997 0,-25.5313 -18.29,-43.9922 -44,-43.9922 -25.71,0 -44,18.4609 -44,43.9922 0,25.5197 18.29,43.9997 44,43.9997" /><path
         id="path58"
         style="fill:#5d0632;fill-opacity:1;fill-rule:nonzero;stroke:none"
         d="m 1323.23,51.0586 c 20.46,0 33.13,15.3906 33.13,34.2227 0,18.8207 -12.67,34.2187 -33.13,34.2187 -20.47,0 -33.14,-15.398 -33.14,-34.2187 0,-18.8321 12.67,-34.2227 33.14,-34.2227 z m 0,78.2224 c 25.71,0 44,-18.48 44,-43.9997 0,-25.5313 -18.29,-43.9922 -44,-43.9922 -25.72,0 -44.01,18.4609 -44.01,43.9922 0,25.5197 18.29,43.9997 44.01,43.9997" /><path
         id="path60"
         style="fill:#5d0632;fill-opacity:1;fill-rule:nonzero;stroke:none"
         d="m 1436.94,119.5 c -20.47,0 -33.14,-15.398 -33.14,-34.2187 0,-18.8321 12.67,-34.2227 33.14,-34.2227 19.73,0 34.94,15.3906 34.94,34.2227 0,18.8207 -15.21,34.2187 -34.94,34.2187 z m 33.86,-61.3711 -0.37,0 c -6.69,-11.5976 -21,-16.8398 -33.49,-16.8398 -25.71,0 -44.01,18.4609 -44.01,43.9922 0,25.5197 18.3,43.9997 44.01,43.9997 12.49,0 26.8,-5.25 33.49,-16.84 l 0.37,0 0,67.891 10.86,0 0,-136.8711 -10.86,0 0,14.668" /><path
         id="path62"
         style="fill:#5d0632;fill-opacity:1;fill-rule:nonzero;stroke:none"
         d="m 1606.96,171.641 78.41,0 0,-10.86 -66.46,0 0,-45.621 62.29,0 0,-10.859 -62.29,0 0,-49.9807 69.35,0 0,-10.8594 -81.3,0 0,128.1801" /><path
         id="path64"
         style="fill:#5d0632;fill-opacity:1;fill-rule:nonzero;stroke:none"
         d="m 1724.65,103.582 c 0,6.148 -0.9,19.18 -0.9,23.527 l 10.86,0 c 0.18,-6.148 0.37,-13.039 0.73,-14.668 l 0.54,0 c 4.35,9.239 15.03,16.84 28.61,16.84 26.07,0 31.87,-17.73 31.87,-36.031 l 0,-49.7891 -10.87,0 0,49.2383 c 0,13.5898 -3.8,26.8008 -21,26.8008 -16.12,0 -28.97,-11.219 -28.97,-34.2187 l 0,-41.8204 -10.87,0 0,60.1211" /><path
         id="path66"
         style="fill:#5d0632;fill-opacity:1;fill-rule:nonzero;stroke:none"
         d="m 1878.75,117.332 -23.91,0 0,-54.5 c 0,-7.4218 4.34,-11.7734 11.59,-11.7734 4.16,0 8.51,1.2734 12.32,2.8906 l 0.89,-9.7695 c -3.98,-1.4414 -9.95,-2.8906 -14.12,-2.8906 -15.56,0 -21.54,9.5898 -21.54,21.5429 l 0,54.5 -18.11,0 0,9.777 18.11,0 0,24.082 10.86,0 0,-24.082 23.91,0 0,-9.777" /><path
         id="path68"
         style="fill:#5d0632;fill-opacity:1;fill-rule:nonzero;stroke:none"
         d="m 1916.95,103.582 c 0,6.148 -0.9,19.18 -0.9,23.527 l 10.86,0 c 0.18,-6.148 0.36,-13.039 0.72,-14.668 5.44,9.789 14.13,16.84 26.62,16.84 2.17,0 4.16,-0.351 6.34,-0.902 l -1.27,-10.68 c -1.63,0.551 -3.07,0.723 -4.16,0.723 -18.84,0 -27.34,-13.051 -27.34,-29.34 l 0,-45.6211 -10.87,0 0,60.1211" /><path
         id="path70"
         style="fill:#5d0632;fill-opacity:1;fill-rule:nonzero;stroke:none"
         d="m 2053.47,92.3516 c 0,14.8394 -12.85,27.1484 -28.96,27.1484 -23.72,0 -30.42,-22.8203 -30.42,-27.1484 l 59.38,0 z m 8.33,-33.1524 c -8.5,-12.6679 -21.37,-17.9101 -36.21,-17.9101 -25.53,0 -42.37,18.2812 -42.37,44.1797 0,24.9802 17.38,43.8122 41.82,43.8122 25.72,0 39.3,-19.73 39.3,-39.1013 l 0,-7.6211 -70.25,0 c 0,-9.0391 6.33,-31.5 31.68,-31.5 11.05,0 22.63,5.8008 28.06,14.8398 l 7.97,-6.6992" /><path
         id="path72"
         style="fill:#5d0632;fill-opacity:1;fill-rule:nonzero;stroke:none"
         d="m 2143.47,51.0586 c 20.46,0 33.14,15.3906 33.14,34.2227 0,18.8207 -12.68,34.2187 -33.14,34.2187 -19.73,0 -34.94,-15.398 -34.94,-34.2187 0,-18.8321 15.21,-34.2227 34.94,-34.2227 z m -44.72,76.0504 10.86,0 0,-14.668 0.37,0 c 6.69,11.59 21,16.84 33.49,16.84 25.71,0 44.01,-18.48 44.01,-43.9997 0,-25.5313 -18.3,-43.9922 -44.01,-43.9922 -12.49,0 -26.8,5.2422 -33.49,16.8398 l -0.37,0 0,-55.95702 -10.86,0 0,124.93712" /><path
         id="path74"
         style="fill:#5d0632;fill-opacity:1;fill-rule:nonzero;stroke:none"
         d="m 2220.6,103.582 c 0,6.148 -0.9,19.18 -0.9,23.527 l 10.86,0 c 0.19,-6.148 0.36,-13.039 0.72,-14.668 5.44,9.789 14.14,16.84 26.63,16.84 2.16,0 4.16,-0.351 6.33,-0.902 l -1.27,-10.68 c -1.63,0.551 -3.07,0.723 -4.16,0.723 -18.83,0 -27.34,-13.051 -27.34,-29.34 l 0,-45.6211 -10.87,0 0,60.1211" /><path
         id="path76"
         style="fill:#5d0632;fill-opacity:1;fill-rule:nonzero;stroke:none"
         d="m 2355.32,92.3516 c 0,14.8394 -12.85,27.1484 -28.97,27.1484 -23.72,0 -30.42,-22.8203 -30.42,-27.1484 l 59.39,0 z m 8.33,-33.1524 c -8.51,-12.6679 -21.37,-17.9101 -36.21,-17.9101 -25.53,0 -42.38,18.2812 -42.38,44.1797 0,24.9802 17.39,43.8122 41.83,43.8122 25.71,0 39.3,-19.73 39.3,-39.1013 l 0,-7.6211 -70.26,0 c 0,-9.0391 6.34,-31.5 31.68,-31.5 11.06,0 22.64,5.8008 28.07,14.8398 l 7.97,-6.6992" /><path
         id="path78"
         style="fill:#5d0632;fill-opacity:1;fill-rule:nonzero;stroke:none"
         d="m 2398.41,103.582 c 0,6.148 -0.9,19.18 -0.9,23.527 l 10.86,0 c 0.19,-6.148 0.37,-13.039 0.73,-14.668 l 0.54,0 c 4.35,9.239 15.03,16.84 28.61,16.84 26.07,0 31.87,-17.73 31.87,-36.031 l 0,-49.7891 -10.87,0 0,49.2383 c 0,13.5898 -3.8,26.8008 -21,26.8008 -16.12,0 -28.97,-11.219 -28.97,-34.2187 l 0,-41.8204 -10.87,0 0,60.1211" /><path
         id="path80"
         style="fill:#5d0632;fill-opacity:1;fill-rule:nonzero;stroke:none"
         d="m 2570.79,92.3516 c 0,14.8394 -12.86,27.1484 -28.97,27.1484 -23.72,0 -30.42,-22.8203 -30.42,-27.1484 l 59.39,0 z m 8.33,-33.1524 c -8.51,-12.6679 -21.37,-17.9101 -36.21,-17.9101 -25.53,0 -42.38,18.2812 -42.38,44.1797 0,24.9802 17.39,43.8122 41.83,43.8122 25.71,0 39.3,-19.73 39.3,-39.1013 l 0,-7.6211 -70.26,0 c 0,-9.0391 6.34,-31.5 31.68,-31.5 11.06,0 22.64,5.8008 28.07,14.8398 l 7.97,-6.6992" /><path
         id="path82"
         style="fill:#5d0632;fill-opacity:1;fill-rule:nonzero;stroke:none"
         d="m 2686.5,67 c 0,-6.1602 0.91,-19.1992 0.91,-23.5391 l -10.87,0 c -0.18,6.1485 -0.36,13.0274 -0.72,14.668 l -0.55,0 c -4.35,-9.2383 -15.02,-16.8398 -28.6,-16.8398 -26.08,0 -31.87,17.7422 -31.87,36.0195 l 0,49.8004 10.86,0 0,-49.2574 c 0,-13.5703 3.8,-26.793 21.01,-26.793 16.11,0 28.97,11.2305 28.97,34.2227 l 0,41.8277 10.86,0 0,-60.109" /><path
         id="path84"
         style="fill:#5d0632;fill-opacity:1;fill-rule:nonzero;stroke:none"
         d="m 2726.15,103.582 c 0,6.148 -0.9,19.18 -0.9,23.527 l 10.86,0 c 0.18,-6.148 0.36,-13.039 0.72,-14.668 5.44,9.789 14.13,16.84 26.62,16.84 2.17,0 4.16,-0.351 6.34,-0.902 l -1.27,-10.68 c -1.63,0.551 -3.08,0.723 -4.16,0.723 -18.84,0 -27.34,-13.051 -27.34,-29.34 l 0,-45.6211 -10.87,0 0,60.1211" /><path
         id="path86"
         style="fill:#5d0632;fill-opacity:1;fill-rule:nonzero;stroke:none"
         d="m 2801.84,64.832 c 4.52,-8.8906 14.48,-13.7734 24.26,-13.7734 9.42,0 19.2,5.8008 19.2,15.3906 0,23.0117 -49.62,6.8711 -49.62,38.7498 0,16.289 14.85,24.082 28.61,24.082 13.59,0 24.08,-5.062 29.51,-15.742 l -9.77,-5.801 c -4.16,7.594 -9.96,11.762 -19.74,11.762 -7.78,0 -17.74,-4.711 -17.74,-13.398 0,-22.6215 49.61,-5.063 49.61,-38.9301 0,-17.1914 -14.3,-25.8828 -30.24,-25.8828 -14.3,0 -27.16,5.4297 -33.68,17.0117 l 9.6,6.5312" /><path
         id="path88"
         style="fill:#5d0632;fill-opacity:1;fill-rule:nonzero;stroke:none"
         d="m 2945.97,517.973 c 13.19,6.601 32.62,29.238 48,62.949 15.35,33.633 67.02,87.891 87.21,91.641 24.81,4.726 50.02,7.714 53.79,-2.649 3.72,-10.301 -27.61,-45.555 -26.54,-56.141 1.08,-10.605 23.86,2.403 23.86,2.403 0,0 72.87,74.219 84.49,64.648 11.76,-9.531 3.83,-20.097 -4.93,-39.746 -8.74,-19.609 -22.94,-37.969 -25.37,-48.926 -2.53,-10.957 3.35,-15.703 13.42,-9.375 10,6.348 28.6,34.961 37.57,51.973 9.02,16.934 56.96,59.688 72.8,61.23 0,0 6.37,-27.05 11.02,-43.066 4.65,-15.976 -6.82,-64.336 3.81,-73.242 10.66,-8.926 35.12,4.394 35.12,4.394 0,0 -0.41,-55.214 8.74,-61.64 9.06,-6.426 29.12,-2.696 29.12,-2.696 0,0 4.98,-41.621 16.56,-46.484 0,0 59.83,36.797 80.09,112.793 6.17,23.223 15.18,81.328 5.13,128.496 -10.12,47.188 -66.05,124.52 -66.05,124.52 l 44.38,16.886 c 0,0 21.4,18.301 26.13,27.657 5.41,10.625 18.83,25.976 18.83,25.976 0,0 134.88,75.43 130.6,91.036 -4.24,15.68 -149.72,-7.266 -149.72,-7.266 0,0 -21.2,51.406 -95.38,43.966 -47.74,-4.81 -101.25,-58.341 -101.25,-58.341 0,0 -33.92,44.781 -68.89,73.421 -35.02,28.61 -85.97,31.4 -94.71,38.55 -8.72,7.13 -61.39,13.06 -114.99,13.05 -53.52,0 -138.61,-67.6 -148.93,-71.4 -14.01,-5.2 -3.26,-22.64 10.82,-26 14.13,-3.36 51.33,-7.973 51.33,-7.973 0,0 -13.82,-22.238 -2.21,-27.129 11.58,-4.883 58.86,-11.894 58.86,-11.894 0,0 -1.86,-16.602 10.82,-25.977 12.66,-9.414 102.75,-33.027 102.75,-33.027 0,0 -57.91,-75.93 -205.48,-90.207 -57.45,-5.574 -98.88,4.719 -107.67,5.351 -13.11,0.95 -1.03,-33.972 1.98,-47.937 2.99,-13.984 23.01,-24.004 23.01,-24.004 0,0 -13.99,-9.98 -10.01,-25.977 4.02,-15.976 29.98,-28.976 29.98,-28.976 0,0 -14.01,-4.004 -7,-19.988 7,-15.997 26.99,-17.989 26.99,-17.989 0,0 -6.02,-19.961 0,-29.961 5.95,-10 44.94,-20.976 44.94,-20.976 0,0 -5.96,-24.981 4,-49.981 10.01,-24.961 19.81,-38.535 32.98,-31.972" /><path
         id="path90"
         style="fill:#ffffff;fill-opacity:1;fill-rule:nonzero;stroke:none"
         d="m 3271.76,792.875 c -15.93,-17.832 -69.59,-51.945 -111.05,-62.512 -28.17,-7.168 -63.27,-8.504 -85.15,-12.117 41.4,14.395 128.96,41.934 144.8,46.856 3.35,1.035 13.43,4.128 113.08,87.976 l 0.62,-6.453 c -16.56,-12.93 -49.2,-39.035 -62.3,-53.75 z m 32.77,-3.008 c -11.58,-10.734 -37.88,-35.156 -58.96,-48.418 -2.48,-1.562 -7.99,-0.859 -15.59,-2.734 25.82,14.492 47.91,30.976 57.94,42.226 8.82,9.903 28.65,26.446 44.5,39.2 -9.63,-9.844 -21.69,-24.504 -27.89,-30.274 z m 59.99,38.965 -5.35,13.398 c 0.06,0.34 0.26,0.645 0.3,1.004 l 17.02,43.723 c 0.42,4.383 -1.88,8.594 -5.79,10.625 -3.92,2.031 -8.66,1.504 -12.02,-1.367 l -2.47,-2.102 -4.26,10.617 c -1.45,3.614 -18.55,-3.867 -22.41,-3.339 -3.87,0.527 -7.71,-1.067 -10.07,-4.172 -0.29,-0.379 -29.13,-30.887 -65.95,-40.293 -14.02,-3.582 -25.92,-12.625 -37.79,-14.11 -22.15,-2.793 -50.86,-0.91 -92.83,-17.597 -61.91,-24.629 -138.25,-50.196 -139.07,-50.41 -3.3,-0.832 -6.01,-3.157 -7.33,-6.289 -2.85,-6.758 -3.72,-17.188 3.2,-24.317 11.02,-11.359 32.36,-4.922 47.44,0.918 15.49,5.996 52.78,19.219 58.41,21.473 l -55.06,-30.821 c -1,-0.781 -1.87,-1.726 -2.53,-2.82 -4.53,-7.285 -3.64,-13.965 2.43,-21.445 4.23,-5.215 10.46,-6.582 17.21,-6.094 -1.46,-2.109 -2.25,-4.738 -1.9,-7.5 0.75,-5.859 6.05,-10.031 11.92,-9.387 29.26,3.223 176.36,20.032 199.47,34.582 22.82,14.336 50.16,39.727 61.84,50.586 12.03,11.172 42.06,42.266 43.34,43.594 2.96,3.066 3.83,7.578 2.25,11.543" /><path
         id="path92"
         style="fill:#cd4119;fill-opacity:1;fill-rule:nonzero;stroke:none"
         d="m 3247.17,966.488 -30.37,3.321 c -1.09,3.046 -3.37,5.625 -6.65,6.699 -3.02,0.996 -74.35,24.542 -110.87,31.972 -35.4,7.15 -78.34,-2.52 -86.26,-4.45 l -30.59,-0.62 c -5.72,-0.12 -10.35,-4.629 -10.64,-10.34 -0.28,-5.703 3.92,-10.644 9.58,-11.308 l 33.91,-3.996 c 0.86,-4.598 4.46,-8.309 9.32,-8.856 l 112.63,-12.285 c 4.38,-2.043 9.31,-4.309 15.53,-6.562 21.28,-7.657 86.3,-5.508 93.64,-5.235 5.69,0.203 10.26,4.774 10.46,10.457 0.21,5.695 -4.02,10.578 -9.69,11.203" /><path
         id="path94"
         style="fill:#cd4119;fill-opacity:1;fill-rule:nonzero;stroke:none"
         d="m 3404.47,690.473 c -1.2,37.168 -16.73,89.765 -17.39,91.972 -1.24,4.149 -5.15,6.895 -9.46,6.66 -4.31,-0.253 -7.89,-3.437 -8.65,-7.695 l -4.57,-26.035 c -9.76,-5.039 -9.85,-28.926 -9.7,-34.883 -0.07,-0.547 -0.47,-2.246 -0.79,-3.633 -1.89,-8.039 -5.41,-23.007 -3.98,-43.769 l -10.95,-62.168 c -0.82,-4.668 2.01,-9.219 6.57,-10.547 4.56,-1.328 9.39,0.977 11.2,5.371 0.56,1.348 13.44,32.91 11.86,66.094 l 2.19,12.43 4.75,-31.356 c 5.91,-37.93 5.84,-100.976 5.84,-101.621 -0.01,-5.039 4.01,-9.18 9.04,-9.316 5.05,-0.157 9.29,3.75 9.57,8.789 0.24,4.199 5.64,103.32 4.47,139.707" /><path
         id="path96"
         style="fill:#cd4119;fill-opacity:1;fill-rule:nonzero;stroke:none"
         d="m 3490.45,988.129 c -3.27,1.074 -11.64,2.43 -18.99,-8.223 -2.38,-3.437 -3.74,-4.855 -4.56,-5.566 3.06,7.539 4.74,18.73 0.27,27.64 -2.81,5.62 -7.7,9.56 -13.77,11.11 -8.94,2.29 -15.41,-0.08 -20.98,-5.76 0.48,4.86 -1.87,9.71 -6.41,12.11 -5.76,3.01 -12.88,1.02 -16.24,-4.55 -5.33,-8.81 -10.83,-17.835 -16.27,-26.675 -0.02,4.797 -2.85,9.348 -7.56,11.301 -6.25,2.614 -13.42,-0.313 -16.06,-6.555 -0.13,-0.293 -6.47,-15.098 -16.42,-32.625 -0.84,3.555 -3.05,6.719 -6.55,8.379 -5.59,2.617 -12.26,0.703 -15.59,-4.492 -18.91,-29.493 -27.45,-46.641 -30.62,-57.239 -7.2,-8.718 -15.64,-16.316 -25.33,-20.593 -24.28,-10.703 -67.04,-21.641 -108.38,-32.227 -25.71,-6.562 -52.27,-13.359 -73.67,-19.961 -15.89,-4.902 -30.58,-9.961 -44.79,-14.844 -34.22,-11.777 -63.78,-21.953 -91,-22.929 -40.37,-1.477 -126.45,-8.301 -130.09,-8.594 -6.2,-0.488 -11.07,-5.547 -11.32,-11.758 -0.08,-1.855 0,-11.543 8.84,-19.473 6.45,-5.8 15.8,-8.691 27.62,-8.925 -9.97,-5.188 -15.44,-10.84 -16.35,-11.875 -0.59,-0.657 -1.11,-1.387 -1.54,-2.16 -2.86,-5.067 -4.27,-13.407 1.13,-20.196 5.45,-6.875 14.77,-8.152 25.23,-7 -1.47,-1.289 -2.72,-2.812 -3.45,-4.687 -1.1,-2.852 -6.11,-17.657 3.38,-28.008 6.85,-7.473 17.96,-9.063 33.02,-4.727 16.32,4.707 37.82,8.809 55.09,12.078 1.11,0.215 2.03,0.383 3.05,0.598 -27.74,-10.265 -56.17,-20.937 -65.73,-24.551 -3.52,-1.328 -6.25,-4.199 -7.39,-7.812 -1.12,-3.594 -0.56,-7.52 1.57,-10.625 1.4,-2.051 14.61,-19.707 48.15,-9.746 l 33.03,10.195 c -9.4,-5.684 -22.09,-13.769 -28.78,-18.066 -2.25,-1.446 -3.97,-3.575 -4.9,-6.094 l -4.91,-13.399 c -0.8,-2.187 -0.97,-4.57 -0.46,-6.855 l 8.15,-37.383 c 1.17,-5.371 5.77,-9.316 11.26,-9.648 5.49,-0.332 10.54,3.027 12.36,8.203 0.02,0.058 2.83,7.851 7.9,14.551 2.28,3.027 5.68,6.836 8.97,10.547 5.94,6.679 11.07,12.46 13.51,17.363 1.23,2.324 7.85,10.234 11.4,14.492 5.66,6.758 7.68,9.219 8.85,11.582 2.43,4.863 1.23,10.469 -2.42,14.121 5.79,5.235 13.26,12.207 23.11,21.738 4.09,3.965 4.93,10.235 2.02,15.118 -1.43,2.421 -3.6,4.16 -6.06,5.136 16.7,5.567 19.69,30.957 20.17,38.856 0.25,4.113 -1.59,8.086 -4.88,10.558 -2.5,1.895 -5.59,2.715 -8.64,2.403 1.25,2.226 1.86,4.804 1.54,7.48 -0.66,5.528 -4.96,9.922 -10.48,10.711 -1.76,0.254 -17.55,2.402 -28.76,0.344 -2.71,-0.488 -7.18,1.902 -8.97,3.301 -1.55,1.191 -3.4,1.972 -5.31,2.363 1.57,0.527 2.7,0.898 2.99,0.996 5.8,1.941 9.29,7.852 8.19,13.867 -0.25,1.387 -0.78,2.637 -1.43,3.809 22.09,4.316 45,12.117 70.36,20.84 14.01,4.824 28.49,9.812 44.02,14.59 20.83,6.433 45.93,12.851 72.51,19.648 42.32,10.828 86.09,22.019 112.22,33.555 10.69,4.714 20.04,12.109 28.15,20.593 6.95,0.09 13.54,4.914 16.28,6.985 3.29,2.48 6.48,5.371 9.62,8.437 0.84,-2.91 2.73,-4.367 5.02,-6.035 3.21,-2.344 8.02,-3.242 12.67,-1.211 0.52,-3.086 2.09,-5.969 4.76,-7.91 1.89,-1.367 4.06,-1.973 6.26,-2.148 -16.85,-18.672 -8.16,-30.411 -6.07,-32.715 4.05,-4.473 10.77,-5.352 15.83,-2.051 l 19.26,12.383 c 3.3,-4.239 8.98,-6.114 14.19,-3.965 76.03,31.113 81.04,42.656 82.68,46.445 4.98,11.707 9.23,34.082 9.69,36.582 0.11,0.606 0.18,1.211 0.2,1.817 1.52,42.09 -8.18,45.293 -13.39,47.031" /><path
         id="path98"
         style="fill:#cd4119;fill-opacity:1;fill-rule:nonzero;stroke:none"
         d="m 3469.44,677.582 c 10.33,-35.684 -8.04,-80.781 -12.43,-83.965 -3.35,-2.441 -10.25,2.324 -6.24,12.481 11.45,29.062 6.81,72.722 11.24,76.101 4.02,3.067 6.7,-2.117 7.43,-4.617 z m -34.9,128.992 c -3.43,4.934 -10.2,6.164 -15.13,2.746 -4.93,-3.418 -6.16,-10.187 -2.74,-15.117 0,0.008 0,0.008 0,0.008 0.13,-0.215 4.18,-6.211 9.74,-16.063 -2.82,-0.371 -5.49,-1.757 -7.32,-4.199 -2.56,-3.418 -4.8,-10.078 -1.91,-33.594 0.92,-7.453 3.24,-15.332 5.7,-23.671 5.6,-18.996 11.94,-40.528 5.65,-66.973 -2.72,-11.328 -3.09,-17.227 -3.7,-27.012 -0.77,-12.148 -2.05,-32.48 -9.59,-82.461 -0.66,-4.394 1.43,-8.554 4.96,-10.781 -3.16,-22.949 -3.26,-26.309 5.81,-28.828 5.25,-1.445 10.91,1.406 13.04,6.426 0.01,0.019 0.57,1.289 0.57,1.289 11.42,25.312 38.46,89.375 43.18,137.383 7.72,78.964 -45.98,157.539 -48.26,160.847" /><path
         id="path100"
         style="fill:#cd4119;fill-opacity:1;fill-rule:nonzero;stroke:none"
         d="m 3266.44,916.625 c -1.15,3.984 -4.46,6.973 -8.54,7.695 -9.98,1.758 -19.46,3.008 -28.84,4.063 -13.98,4.597 -29.74,4.316 -45.19,3.855 -19.55,1.621 -42.05,5.52 -63.96,9.387 -23.02,4.051 -46.82,8.242 -67.5,9.785 -5.99,0.449 -11.2,-4.043 -11.64,-10.019 -0.45,-5.989 4.04,-11.203 10.02,-11.641 19.6,-1.465 42.86,-5.566 65.34,-9.531 7.6,-1.34 15.25,-2.656 22.89,-3.926 1.41,-1.66 3.24,-2.988 5.5,-3.566 7.14,-1.786 14.88,-2.313 22.76,-2.411 0.25,-0.039 0.51,-0.078 0.75,-0.136 -1.79,-2.754 -2.49,-6.203 -1.28,-9.551 2.04,-5.637 8.27,-8.555 13.92,-6.516 1.23,0.442 3.7,0.305 6.07,0.157 1.87,-0.118 3.97,-0.243 6.19,-0.157 6.83,0.227 17.87,1.164 29.37,4.192 15.35,-2.422 30.74,-2.051 41.01,7.265 3.06,2.782 4.27,7.071 3.13,11.055" /><path
         id="path102"
         style="fill:#cd4119;fill-opacity:1;fill-rule:nonzero;stroke:none"
         d="m 3234.12,1020.1 c 2.45,4.94 1.08,10.93 -3.29,14.34 -13.79,10.78 -24.46,14.76 -37.96,19.83 -4.12,1.55 -8.4,3.16 -13.27,5.13 -27.63,11.18 -60.6,18.1 -92.86,19.49 -16.48,0.69 -32.72,-0.97 -48.43,-2.56 -8.31,-0.86 -16.9,-1.74 -25.21,-2.2 -25.65,-1.49 -42.77,-11.02 -64.44,-23.09 l -8.63,-4.79 c -5.63,-3.08 -7.7,-10.16 -4.61,-15.8 3.1,-5.64 10.17,-7.7 15.82,-4.61 l 8.75,4.85 c 1.33,0.74 2.56,1.42 3.85,2.15 1.87,-1.68 4.27,-2.75 6.9,-2.93 15.63,-1.16 30.93,2.26 45.73,5.56 3.22,0.71 6.39,1.43 9.53,2.08 3.98,0.25 7.99,0.62 11.99,1.24 6.04,0.95 12.21,1.53 18.46,1.9 15.48,-0.76 31.62,-4.81 47.29,-8.79 l 14.06,-3.52 c 6.15,-1.46 12.78,-2.74 19.18,-3.98 17.2,-3.34 34.99,-6.78 47.67,-14.27 5.52,-3.26 11.25,-7.29 16.8,-11.2 4.35,-3.059 8.84,-6.223 13.3,-9.075 5.42,-3.464 12.62,-1.863 16.08,3.547 3.46,5.418 1.87,12.618 -3.55,16.078 -2.15,1.37 -4.42,3 -6.64,4.53 l 0.11,-0.02 c 5.34,-1.39 10.92,1.15 13.37,6.11" /><path
         id="path104"
         style="fill:#ab698e;fill-opacity:1;fill-rule:nonzero;stroke:none"
         d="m 3469.44,677.582 c 10.33,-35.684 -8.04,-80.781 -12.43,-83.965 -3.35,-2.441 -10.25,2.324 -6.24,12.481 11.45,29.062 6.81,72.722 11.24,76.101 4.02,3.067 6.7,-2.117 7.43,-4.617 z m -34.9,128.992 c -3.43,4.934 -10.2,6.164 -15.13,2.746 -4.93,-3.418 -6.16,-10.187 -2.74,-15.117 0,0.008 0,0.008 0,0.008 0.13,-0.215 4.18,-6.211 9.74,-16.063 -2.82,-0.371 -5.49,-1.757 -7.32,-4.199 -2.56,-3.418 -4.8,-10.078 -1.91,-33.594 0.92,-7.453 3.24,-15.332 5.7,-23.671 5.6,-18.996 11.94,-40.528 5.65,-66.973 -2.72,-11.328 -3.09,-17.227 -3.7,-27.012 -0.77,-12.148 -2.05,-32.48 -9.59,-82.461 -0.66,-4.394 1.43,-8.554 4.96,-10.781 -3.16,-22.949 -3.26,-26.309 5.81,-28.828 5.25,-1.445 10.91,1.406 13.04,6.426 0.01,0.019 0.57,1.289 0.57,1.289 11.42,25.312 38.46,89.375 43.18,137.383 7.72,78.964 -45.98,157.539 -48.26,160.847" /><path
         id="path106"
         style="fill:#ab698e;fill-opacity:1;fill-rule:nonzero;stroke:none"
         d="m 3266.44,916.625 c -1.15,3.984 -4.46,6.973 -8.54,7.695 -9.98,1.758 -19.46,3.008 -28.84,4.063 -13.98,4.597 -29.74,4.316 -45.19,3.855 -19.55,1.621 -42.05,5.52 -63.96,9.387 -23.02,4.051 -46.82,8.242 -67.5,9.785 -5.99,0.449 -11.2,-4.043 -11.64,-10.019 -0.45,-5.989 4.04,-11.203 10.02,-11.641 19.6,-1.465 42.86,-5.566 65.34,-9.531 7.6,-1.34 15.25,-2.656 22.89,-3.926 1.41,-1.66 3.24,-2.988 5.5,-3.566 7.14,-1.786 14.88,-2.313 22.76,-2.411 0.25,-0.039 0.51,-0.078 0.75,-0.136 -1.79,-2.754 -2.49,-6.203 -1.28,-9.551 2.04,-5.637 8.27,-8.555 13.92,-6.516 1.23,0.442 3.7,0.305 6.07,0.157 1.87,-0.118 3.97,-0.243 6.19,-0.157 6.83,0.227 17.87,1.164 29.37,4.192 15.35,-2.422 30.74,-2.051 41.01,7.265 3.06,2.782 4.27,7.071 3.13,11.055" /><path
         id="path108"
         style="fill:#ab698e;fill-opacity:1;fill-rule:nonzero;stroke:none"
         d="m 3234.12,1020.1 c 2.45,4.94 1.08,10.93 -3.29,14.34 -13.79,10.78 -24.46,14.76 -37.96,19.83 -4.12,1.55 -8.4,3.16 -13.27,5.13 -27.63,11.18 -60.6,18.1 -92.86,19.49 -16.48,0.69 -32.72,-0.97 -48.43,-2.56 -8.31,-0.86 -16.9,-1.74 -25.21,-2.2 -25.65,-1.49 -42.77,-11.02 -64.44,-23.09 l -8.63,-4.79 c -5.63,-3.08 -7.7,-10.16 -4.61,-15.8 3.1,-5.64 10.17,-7.7 15.82,-4.61 l 8.75,4.85 c 1.33,0.74 2.56,1.42 3.85,2.15 1.87,-1.68 4.27,-2.75 6.9,-2.93 15.63,-1.16 30.93,2.26 45.73,5.56 3.22,0.71 6.39,1.43 9.53,2.08 3.98,0.25 7.99,0.62 11.99,1.24 6.04,0.95 12.21,1.53 18.46,1.9 15.48,-0.76 31.62,-4.81 47.29,-8.79 l 14.06,-3.52 c 6.15,-1.46 12.78,-2.74 19.18,-3.98 17.2,-3.34 34.99,-6.78 47.67,-14.27 5.52,-3.26 11.25,-7.29 16.8,-11.2 4.35,-3.059 8.84,-6.223 13.3,-9.075 5.42,-3.464 12.62,-1.863 16.08,3.547 3.46,5.418 1.87,12.618 -3.55,16.078 -2.15,1.37 -4.42,3 -6.64,4.53 l 0.11,-0.02 c 5.34,-1.39 10.92,1.15 13.37,6.11" /><path
         id="path110"
         style="fill:#5d0632;fill-opacity:1;fill-rule:nonzero;stroke:none"
         d="m 3466.41,1187.02 c -6.05,11.85 -13.02,20.44 -19.74,28.75 -4.88,5.97 -9.47,11.64 -13.37,18.18 -9.07,15.1 -23.74,30.35 -35.52,42.62 -3.29,3.39 -6.39,6.64 -8.79,9.27 -11.98,13.19 -21.5,22.41 -29.71,28.66 1.14,0.13 2.18,0.19 3.39,0.36 11.51,1.55 39.44,-9.86 52.23,-23.65 12.98,-14 22.06,-25.93 30.06,-45.5 1.85,-4.57 4.05,-9.03 6.61,-14.18 4.1,-8.28 8.76,-17.68 13.88,-31.45 0.01,0 2.25,-6.01 2.25,-6.01 2.83,-7.63 5.75,-15.41 9,-23.32 -3.55,4.66 -7.04,9.86 -10.29,16.27 z m -134.69,56.25 c 14.02,-21.98 28.05,-36.18 41.24,-48.87 4.23,-4.06 10.58,-11.94 16.72,-19.55 7.44,-9.23 14.47,-17.95 19.66,-22.44 2.86,-2.55 16.8,-19.61 30.14,-36.02 -3.99,2.91 -7.78,5.63 -11.13,7.88 -7.34,4.93 -13.87,10.81 -20.8,17.02 -6.53,5.88 -13.29,11.96 -20.94,17.35 -18.68,13.1 -38.9,30.27 -54.11,45.88 -16.81,17.26 -20.49,30.17 -24.39,43.83 -0.6,2.12 -1.22,4.33 -1.89,6.54 -2.89,9.39 -1.62,19.45 3.03,28.88 4.13,-11.73 12.63,-25.07 22.47,-40.5 z m 216.38,-184.98 c 0,0 -0.05,0.07 -0.06,0.09 -0.13,1.1 -0.31,2.21 -0.81,3.28 -23.88,50.57 -30.54,69.16 -34.52,80.28 -2.33,6.5 -4.01,11.23 -7.52,18.16 -7.05,13.99 -12.24,27.95 -17.26,41.47 l -2.26,6.07 c -5.51,14.79 -10.64,25.16 -14.77,33.48 -2.35,4.76 -4.39,8.87 -5.96,12.73 -9.21,22.52 -19.91,36.6 -34.21,52.05 -15.23,16.4 -49.51,33.23 -70.93,30.35 -2.65,-0.35 -5.24,-0.58 -7.75,-0.8 -11.64,-1.04 -23.7,-2.11 -39.83,-14.9 -24.17,-19.15 -34.38,-46.73 -26.65,-71.97 0.61,-2.01 1.18,-4.02 1.79,-6.15 4.25,-14.9 9.07,-31.8 29.68,-52.97 23.2,-23.81 47.69,-41.83 57.15,-48.48 6.6,-4.65 12.59,-10.04 18.94,-15.74 7.18,-6.45 14.59,-13.11 23.17,-18.87 30.93,-20.88 98.92,-78.24 99.6,-78.81 4.55,-3.85 11.36,-3.28 15.21,1.28 3.84,4.54 3.27,11.36 -1.29,15.21 -0.22,0.17 -0.93,0.78 -1.86,1.56 -0.56,0.94 -1.16,1.87 -2.04,2.64 -10.8,9.39 -42.82,48.75 -66.21,77.48 -20.96,25.76 -32.09,39.37 -36.22,42.98 -3.76,3.25 -10.8,11.98 -17.01,19.67 -6.85,8.52 -13.34,16.55 -18.56,21.57 -12.25,11.79 -25.27,24.94 -37.78,44.59 -16.23,25.39 -25.74,41.01 -19.98,46.67 2.37,2.34 3.62,2.31 4.21,2.29 6.42,-0.2 19.42,-11.02 38.65,-32.17 2.61,-2.88 5.8,-6.21 9.2,-9.72 10.45,-10.88 24.77,-25.76 32.56,-38.75 4.7,-7.86 9.99,-14.38 15.12,-20.7 6.31,-7.78 12.27,-15.12 17.27,-24.92 7.07,-13.95 14.98,-23.17 21.96,-31.3 5.23,-6.09 9.75,-11.37 13.2,-17.78 8.61,-16.07 45.65,-78.29 47.23,-80.93 3.04,-5.12 9.66,-6.8 14.79,-3.75 5.12,3.05 6.8,9.67 3.75,14.81" /><path
         id="path112"
         style="fill:#5d0632;fill-opacity:1;fill-rule:nonzero;stroke:none"
         d="m 3516.06,1037.13 -6.09,-15.49 c 0,0 10.46,-10.03 16.86,-19.49 16.66,-24.666 28.4,-30.74 30.62,-33.279 16.68,-19.277 35.46,-36.691 37.93,-40.527 4.79,-7.383 14.05,-15.508 33.11,-0.156 16.52,13.3 -2.97,33.269 -11.14,48.945 -8.33,15.976 -22.64,39.667 -33.95,53.637 -10.29,12.74 -24.22,33.06 -24.22,33.06 l -11.87,-1.93 -31.25,-24.77" /><path
         id="path114"
         style="fill:#5d0632;fill-opacity:1;fill-rule:nonzero;stroke:none"
         d="m 3467.88,966.566 c 4.21,-5.703 -28.32,-56.027 -35.05,-56.875 -6.69,-0.878 -25.49,31.25 -23.33,39.012 2.09,7.785 52.36,26.106 58.38,17.863" /></g></g></svg>