<?xml version="1.0" encoding="UTF-8" standalone="no"?>
<svg width="106px" height="106px" viewBox="0 0 106 106" version="1.1" xmlns="http://www.w3.org/2000/svg" xmlns:xlink="http://www.w3.org/1999/xlink">
    <!-- Generator: Sketch 39.1 (31720) - http://www.bohemiancoding.com/sketch -->
    <title>Group 2</title>
    <desc>Created with Sketch.</desc>
    <defs></defs>
    <g id="Page-1" stroke="none" stroke-width="1" fill="none" fill-rule="evenodd">
        <g id="Home" transform="translate(-667.000000, -621.000000)" stroke-width="3">
            <g id="Group-2" transform="translate(668.000000, 622.000000)">
                <path d="M102.837982,51.8624036 C102.837982,23.7108264 80.0160635,0.887014186 51.8625929,0.887014186 C23.7091224,0.887014186 0.887203516,23.7108264 0.887203516,51.8624036 C0.887203516,80.0158741 23.7091224,102.837793 51.8625929,102.837793 C80.0160635,102.837793 102.837982,80.0158741 102.837982,51.8624036 Z" id="Stroke-1" stroke="#65003D"></path>
                <path d="M32.9213848,50.9142356 C33.3833516,51.6848114 33.9077976,52.4364542 34.4928293,53.1691639 C35.0797544,53.9018736 35.5076417,54.4073865 35.7764913,54.6838092 C36.0472341,54.9621253 36.2592845,55.1628158 36.4126423,55.2858808 L50.8453192,69.2092582 C51.121742,69.485681 51.4606439,69.6257857 51.8620249,69.6257857 C52.263406,69.6257857 52.6023079,69.485681 52.8806239,69.2092582 L67.2886879,55.3313201 C70.8197049,51.8021964 72.58616,48.3317653 72.58616,44.9238132 C72.58616,41.5329009 71.6054271,38.8803783 69.647748,36.9681385 C67.6900689,35.0558987 64.9845336,34.0997789 61.5311422,34.0997789 C60.573129,34.0997789 59.5980761,34.2663899 58.6040901,34.5977185 C57.6101041,34.9290472 56.6842771,35.3758676 55.8285025,35.9381797 C54.9727278,36.5023851 54.2362315,37.0306176 53.6209069,37.5228774 C53.0036889,38.0170304 52.4167638,38.5414764 51.8620249,39.0962152 C51.3072861,38.5414764 50.7222543,38.0170304 50.1050363,37.5228774 C49.4878183,37.0306176 48.751322,36.5023851 47.8955474,35.9381797 C47.0397728,35.3758676 46.1158391,34.9290472 45.1199598,34.5977185 C44.1259738,34.2663899 43.1509208,34.0997789 42.194801,34.0997789 C38.7414096,34.0997789 36.033981,35.0558987 34.0763019,36.9681385 C32.1186227,38.8803783 31.1397832,41.5329009 31.1397832,44.9238132 C31.1397832,45.9575587 31.3215406,47.021597 31.6831622,48.1159283 C32.0447838,49.2102596 32.4575246,50.1436598 32.9213848,50.9142356 Z" id="Stroke-3" stroke="#CB511E"></path>
            </g>
        </g>
    </g>
</svg>