<?xml version="1.0" encoding="UTF-8" standalone="no"?>
<svg width="91px" height="100px" viewBox="0 0 91 100" version="1.1" xmlns="http://www.w3.org/2000/svg" xmlns:xlink="http://www.w3.org/1999/xlink">
    <!-- Generator: Sketch 39.1 (31720) - http://www.bohemiancoding.com/sketch -->
    <title>Page 1</title>
    <desc>Created with Sketch.</desc>
    <defs></defs>
    <g id="Page-1" stroke="none" stroke-width="1" fill="none" fill-rule="evenodd">
        <g id="Donate" transform="translate(-663.000000, -820.000000)" stroke="#33494C" stroke-width="3.75">
            <g id="Page-1" transform="translate(663.000000, 822.000000)">
                <path d="M31.4314,20.5469957 C29.2919319,31.7476116 24.4282723,41.9816572 17.5122723,50.5048735 L17.5122723,95.8486164 L73.0164638,95.8486164 L73.0164631,50.5048731 C66.9775482,42.314157 62.7450809,30.2242969 60.8766766,19.8124023" id="Stroke-1"></path>
                <path d="M60.8439553,19.8116291 L31.5884234,19.8116291 C31.5438915,20.059071 31.4780617,20.3007136 31.4315936,20.5462224" id="Stroke-3"></path>
                <path d="M60.2245492,20.0865711 C60.7209827,18.6176909 61,17.0493177 61,15.4140127 C61,7.32793606 54.4358456,0.772244406 46.337096,0.772244406 C38.2383463,0.772244406 31.6723802,7.32793606 31.6723802,15.4140127 C31.6723802,17.3079998 32.0456111,19.1133475 32.701483,20.773978" id="Stroke-5"></path>
                <g id="Group-9" transform="translate(72.640351, 50.680328)">
                    <path d="M0.579145875,0 L18.0918054,0" id="Stroke-7"></path>
                </g>
                <path d="M0,50.6803279 L17.5126596,50.6803279" id="Stroke-10"></path>
                <path d="M34.1310021,51.7888654 L58.3331298,51.7888654 C58.3331298,58.4620663 52.9157255,63.8709934 46.232066,63.8709934 C39.5484064,63.8709934 34.1310021,58.4620663 34.1310021,51.7888654 L34.1310021,51.7888654 Z" id="Stroke-12"></path>
            </g>
        </g>
    </g>
</svg>