<?xml version="1.0" encoding="UTF-8" standalone="no"?>
<svg width="104px" height="104px" viewBox="0 0 104 104" version="1.1" xmlns="http://www.w3.org/2000/svg" xmlns:xlink="http://www.w3.org/1999/xlink">
    <!-- Generator: Sketch 39.1 (31720) - http://www.bohemiancoding.com/sketch -->
    <title>Group 2</title>
    <desc>Created with Sketch.</desc>
    <defs></defs>
    <g id="Page-1" stroke="none" stroke-width="1" fill="none" fill-rule="evenodd">
        <g id="Home" transform="translate(-194.000000, -618.000000)">
            <g id="Group-2" transform="translate(195.000000, 620.000000)">
                <path d="M50.7656727,100.226562 C78.4368795,100.226562 100.867863,77.7955789 100.867863,50.1243722 C100.867863,22.4550263 78.4368795,0.0221818182 50.7656727,0.0221818182 C23.094466,0.0221818182 0.663482386,22.4550263 0.663482386,50.1243722 C0.663482386,77.7955789 23.094466,100.226562 50.7656727,100.226562 L50.7656727,100.226562 Z" id="Stroke-1" stroke="#65003D" stroke-width="3"></path>
                <polygon id="Fill-3" fill="#FEFEFE" points="32.8648025 70.3291914 68.6643099 70.3291914 68.6643099 40.8957363 32.8648025 40.8957363"></polygon>
                <polygon id="Stroke-4" stroke="#CB511E" stroke-width="3" points="32.8648025 70.3291914 68.6643099 70.3291914 68.6643099 40.8957363 32.8648025 40.8957363"></polygon>
                <polygon id="Fill-5" fill="#FEFEFE" points="32.8648025 47.9019295 68.6643099 47.9019295 68.6643099 40.8957363 32.8648025 40.8957363"></polygon>
                <polygon id="Stroke-6" stroke="#CB511E" stroke-width="3" points="32.8648025 47.9019295 68.6643099 47.9019295 68.6643099 40.8957363 32.8648025 40.8957363"></polygon>
                <path d="M38.9431636,36.2662522 L38.9431636,39.654905 M62.877734,36.2662522 L62.877734,39.654905" id="Stroke-7" stroke="#CB511E" stroke-width="3" stroke-linecap="round"></path>
            </g>
        </g>
    </g>
</svg>