<?xml version="1.0" encoding="UTF-8"?>
<svg width="33px" height="34px" viewBox="0 0 33 34" version="1.1" xmlns="http://www.w3.org/2000/svg" xmlns:xlink="http://www.w3.org/1999/xlink">
    <!-- Generator: sketchtool 41 (35326) - http://www.bohemiancoding.com/sketch -->
    <title>C09E1BDA-B33D-476F-A320-81B0DA1601C3</title>
    <desc>Created with sketchtool.</desc>
    <defs></defs>
    <g id="Page-1" stroke="none" stroke-width="1" fill="none" fill-rule="evenodd">
        <g id="footer" transform="translate(-116.000000, -133.000000)">
            <g id="Group-19" transform="translate(116.000000, 133.006781)">
                <rect id="Rectangle-1-Copy" fill="#FFFFFF" x="0" y="0" width="33" height="33" rx="2"></rect>
                <g id="facebook" transform="translate(13.000000, 4.000000)" fill="#33494C">
                    <g id="Layer_1">
                        <path d="M10.4204865,28.909027 L10.4204865,15.8074749 L14.8180386,15.8074749 L15.4765097,10.7015676 L10.4204865,10.7015676 L10.4204865,7.44176834 C10.4204865,5.96349035 10.8309807,4.95609266 12.9507954,4.95609266 L15.6545174,4.9549112 L15.6545174,0.388146718 C15.1869189,0.32592278 13.5819614,0.186903475 11.7147181,0.186903475 C7.81653282,0.186903475 5.14772973,2.56637838 5.14772973,6.93610039 L5.14772973,10.7015676 L0.738888031,10.7015676 L0.738888031,15.8074749 L5.14772973,15.8074749 L5.14772973,28.909027 L10.4204865,28.909027 L10.4204865,28.909027 Z" id="f"></path>
                    </g>
                </g>
            </g>
        </g>
    </g>
</svg>