<?xml version="1.0" encoding="UTF-8" standalone="no"?>
<svg width="138px" height="70px" viewBox="0 0 138 70" version="1.1" xmlns="http://www.w3.org/2000/svg" xmlns:xlink="http://www.w3.org/1999/xlink">
    <!-- Generator: Sketch 39.1 (31720) - http://www.bohemiancoding.com/sketch -->
    <title>Page 1</title>
    <desc>Created with Sketch.</desc>
    <defs></defs>
    <g id="Page-1" stroke="none" stroke-width="1" fill="none" fill-rule="evenodd" stroke-linecap="round" stroke-linejoin="round">
        <g id="Donate" transform="translate(-354.000000, -834.000000)" stroke="#33494C" stroke-width="3.75">
            <g id="Page-1" transform="translate(356.500000, 835.000000)">
                <path d="M7.102444,59 L124.004044,59" id="Stroke-1"></path>
                <g id="Group-17" transform="translate(0.000000, 0.385625)">
                    <path d="M7.102444,58.6680357 L4.159804,58.6680357 C2.050644,58.6680357 0.340804,60.3769643 0.340804,62.485 C0.340804,64.5930357 2.050644,66.3046429 4.159804,66.3046429 L6.593244,66.3046429" id="Stroke-2"></path>
                    <path d="M124.153244,66 L6.233244,66" id="Stroke-4"></path>
                    <path d="M124.513244,66.3035714 L129.179124,66.3035714 C131.290964,66.3035714 133.000804,64.5946429 133.000804,62.4866071 C133.000804,60.3785714 131.290964,58.6669643 129.179124,58.6669643 L124.004044,58.6669643" id="Stroke-7"></path>
                    <path d="M124.004044,58.6680357 C120.455724,31.2769643 98.104524,9.80017857 70.304884,7.58232143 C70.551444,6.98767857 70.690804,6.33678571 70.690804,5.65375 C70.690804,2.88142857 68.439604,0.631428571 65.665804,0.631428571 C62.889324,0.631428571 60.640804,2.88142857 60.640804,5.65375 C60.640804,6.33142857 60.777484,6.97696429 61.021364,7.56625 C33.119884,9.68767857 10.658804,31.2073214 7.102444,58.6680357" id="Stroke-9"></path>
                    <path d="M31.16,27 L47.68756,27" id="Stroke-11"></path>
                    <path d="M36.966488,48 L20.438928,48" id="Stroke-13"></path>
                    <path d="M22.896488,39 L39.424048,39" id="Stroke-15"></path>
                </g>
            </g>
        </g>
    </g>
</svg>