<?xml version="1.0" encoding="UTF-8" standalone="no"?>
<svg width="98px" height="98px" viewBox="0 0 98 98" version="1.1" xmlns="http://www.w3.org/2000/svg" xmlns:xlink="http://www.w3.org/1999/xlink">
    <!-- Generator: Sketch 39.1 (31720) - http://www.bohemiancoding.com/sketch -->
    <title>Group 2</title>
    <desc>Created with Sketch.</desc>
    <defs>
        <circle id="path-1" cx="49" cy="49" r="49"></circle>
        <mask id="mask-2" maskContentUnits="userSpaceOnUse" maskUnits="objectBoundingBox" x="0" y="0" width="98" height="98" fill="white">
            <use xlink:href="#path-1"></use>
        </mask>
    </defs>
    <g id="Page-1" stroke="none" stroke-width="1" fill="none" fill-rule="evenodd">
        <g id="Donate" transform="translate(-1238.000000, -824.000000)">
            <g id="Group-2" transform="translate(1238.000000, 824.000000)">
                <path d="M59.5709746,42.028072 C58.7863661,41.5287758 57.9304425,41.0651504 57.003178,40.6371822 C56.2185695,40.244878 55.3358983,39.8793273 54.3551377,39.5405191 C53.3743772,39.2017109 52.3847154,38.9431506 51.3861229,38.7648305 L51.3861229,43.5794492 C51.7070991,43.6507772 52.0459022,43.7488518 52.4025424,43.8736758 C52.7591826,43.9984999 53.1336492,44.1144062 53.5259534,44.2213983 C55.2734904,44.7563586 56.8515996,45.3448061 58.2603284,45.9867585 C59.6690572,46.6287108 60.8726998,47.3865599 61.8712924,48.2603284 C62.8698849,49.1340969 63.6366499,50.1950856 64.1716102,51.4433263 C64.7065705,52.691567 64.9740466,54.2072651 64.9740466,55.9904661 C64.9740466,58.0946433 64.6084959,59.8867334 63.8773835,61.3667903 C63.1462711,62.8468471 62.183357,64.0594056 60.9886123,65.0045021 C59.7938676,65.9495987 58.4297393,66.6628684 56.8961864,67.1443326 C55.3626336,67.6257969 53.7756085,67.9200207 52.1350636,68.0270127 L52.1350636,74.5 L47.8554025,74.5 L47.8554025,67.9200212 C45.3945852,67.7060371 42.9516364,67.22458 40.5264831,66.4756356 C38.1013297,65.7266912 35.9258571,64.7816088 34,63.6403602 L38.4936441,54.4925847 C39.4565726,55.0988731 40.4908137,55.6694889 41.5963983,56.2044492 C42.5236628,56.6680814 43.6024833,57.1227909 44.8328919,57.5685911 C46.0633006,58.0143914 47.3204385,58.3264468 48.6043432,58.5047669 L48.6043432,53.7971398 C47.4987586,53.5118277 46.3931906,53.1730246 45.2876059,52.7807203 C43.611397,52.210096 42.1670258,51.5949009 40.9544492,50.9351165 C39.7418725,50.2753322 38.7432949,49.526399 37.9586864,48.6882945 C37.174078,47.85019 36.5945464,46.8961918 36.2200742,45.8262712 C35.8456019,44.7563506 35.6583686,43.5259603 35.6583686,42.1350636 C35.6583686,40.2092065 35.97934,38.5062751 36.6212924,37.0262182 C37.2632447,35.5461614 38.1370001,34.2711918 39.2425847,33.2012712 C40.3481694,32.1313506 41.6409707,31.2754269 43.1210275,30.6334746 C44.6010844,29.9915222 46.1791936,29.5813921 47.8554025,29.403072 L47.8554025,24 L52.1350636,24 L52.1350636,29.4565678 C53.3119762,29.5992239 54.4532077,29.8132048 55.5587924,30.0985169 C56.664377,30.3838291 57.7253657,30.7137163 58.7417903,31.0881886 C59.7582148,31.4626608 60.7122131,31.8549591 61.6038136,32.2650953 C62.4954141,32.6752316 63.3156742,33.058614 64.0646186,33.4152542 L59.5709746,42.028072 Z M53.7399364,57.0068856 C53.7399364,56.5075893 53.5259555,56.0707116 53.0979873,55.6962394 C52.670019,55.3217672 52.0994033,54.99188 51.3861229,54.7065678 L51.3861229,58.6652542 C52.2420594,58.5939262 52.8483386,58.4156088 53.2049788,58.1302966 C53.561619,57.8449844 53.7399364,57.4705179 53.7399364,57.0068856 L53.7399364,57.0068856 Z M46.4645127,40.4231992 C46.4645127,40.9581595 46.6428301,41.3950371 46.9994703,41.7338453 C47.3561105,42.0726535 47.8910628,42.384709 48.6043432,42.6700212 L48.6043432,38.6043432 C47.1777824,38.7826633 46.4645127,39.3889426 46.4645127,40.4231992 L46.4645127,40.4231992 Z" id="$-copy" fill="#33494C"></path>
                <use id="Oval-Copy" stroke="#33494C" mask="url(#mask-2)" stroke-width="7.5" xlink:href="#path-1"></use>
                <path d="M48,10 C70.3625656,10 88.4929685,28.1282336 88.4929685,50.4929685" id="Page-1-Copy" stroke="#33494C" stroke-width="3.75" stroke-linecap="round" stroke-linejoin="round"></path>
            </g>
        </g>
    </g>
</svg>