<?xml version="1.0" encoding="UTF-8"?>
<svg width="33px" height="34px" viewBox="0 0 33 34" version="1.1" xmlns="http://www.w3.org/2000/svg" xmlns:xlink="http://www.w3.org/1999/xlink">
    <!-- Generator: sketchtool 41 (35326) - http://www.bohemiancoding.com/sketch -->
    <title>8FA6B5D7-E5A2-4236-B1FF-F08985C86863</title>
    <desc>Created with sketchtool.</desc>
    <defs></defs>
    <g id="Page-1" stroke="none" stroke-width="1" fill="none" fill-rule="evenodd">
        <g id="footer" transform="translate(-20.000000, -133.000000)">
            <g id="Group-16" transform="translate(20.000000, 133.006781)">
                <rect id="Rectangle-1-Copy-5" fill="#FFFFFF" x="0" y="0" width="33" height="33" rx="2"></rect>
                <path d="M22.4989591,9 C21.6724497,9 21,9.67129951 21,10.5010424 C21,11.3287005 21.6724497,12 22.4989591,12 C23.3275503,12 24,11.3287005 24,10.5010424 C24,9.67129951 23.3275503,9 22.4989591,9 M16.9990002,21 C14.7895526,21 13,19.2095524 13,16.9989997 C13,14.7904476 14.7895526,13 16.9990002,13 C19.2064484,13 21,14.7904476 21,16.9989997 C21,19.2095524 19.2064484,21 16.9990002,21 M17,11 C13.6874391,11 11,13.6859276 11,16.9990261 C11,20.3140724 13.6874391,23 17,23 C20.3125609,23 23,20.3140724 23,16.9990261 C23,13.6859276 20.3125609,11 17,11 M16.5,5 C13.3758333,5 12.98675,5.01533333 11.7581667,5.07091667 C7.58175,5.26258333 5.26066667,7.57983333 5.069,11.7581667 C5.01341667,12.98675 5,13.37775 5,16.5 C5,19.6241667 5.01341667,20.0151667 5.069,21.2418333 C5.26066667,25.4201667 7.57983333,27.7393333 11.7581667,27.931 C12.98675,27.9865833 13.3758333,28 16.5,28 C19.6241667,28 20.0151667,27.9865833 21.2418333,27.931 C25.4125,27.7393333 27.74125,25.424 27.931,21.2418333 C27.9865833,20.0151667 28,19.6241667 28,16.5 C28,13.37775 27.9865833,12.98675 27.931,11.7581667 C27.7431667,7.58558333 25.4220833,5.26258333 21.2418333,5.07091667 C20.0151667,5.01533333 19.6241667,5 16.5,5 M16.5,7 C19.5939215,7 19.960866,7.0115889 21.1833706,7.06760191 C24.3255743,7.21053167 25.7875584,8.69970519 25.9343362,11.817119 C25.9884123,13.0397479 26,13.4047982 26,16.4990343 C26,19.5932703 25.9884123,19.9602521 25.9343362,21.182881 C25.7875584,24.2964318 24.3275056,25.7894683 21.1833706,25.9343296 C19.960866,25.9884111 19.5939215,26 16.5,26 C13.4060785,26 13.039134,25.9884111 11.8185607,25.9343296 C8.66863184,25.7894683 7.21051027,24.2945004 7.06759504,21.182881 C7.01351901,19.9602521 7,19.5932703 7,16.4990343 C7,13.4047982 7.01351901,13.0397479 7.06759504,11.817119 C7.21051027,8.69970519 8.6744257,7.21053167 11.8185607,7.06760191 C13.039134,7.0115889 13.4060785,7 16.5,7" id="Fill-1" fill="#33494C"></path>
            </g>
        </g>
    </g>
</svg>