<?xml version="1.0" encoding="UTF-8" standalone="no"?>
<svg width="109px" height="102px" viewBox="0 0 109 102" version="1.1" xmlns="http://www.w3.org/2000/svg" xmlns:xlink="http://www.w3.org/1999/xlink">
    <!-- Generator: Sketch 39.1 (31720) - http://www.bohemiancoding.com/sketch -->
    <title>Page 1</title>
    <desc>Created with Sketch.</desc>
    <defs></defs>
    <g id="Page-1" stroke="none" stroke-width="1" fill="none" fill-rule="evenodd" stroke-linecap="round" stroke-linejoin="round">
        <g id="Donate" transform="translate(-948.000000, -819.000000)" stroke="#33494C" stroke-width="3.75">
            <g id="Page-1" transform="translate(950.500000, 821.000000)">
                <path d="M14.415082,53.3398345 L0,53.3398345 L0,70.4088 L15.557377,70.4088 C17.1139672,74.5190069 19.5673443,78.2707655 22.7180328,81.4933862 L22.7180328,97.7191448 L35.9499016,97.7191448 L35.9499016,90.191731 C40.7560656,92.0983345 46.0907541,93.1685586 51.7152787,93.1685586 C55.8803934,93.1685586 59.8852459,92.5779724 63.6360656,91.5026276 L63.6360656,97.7191448 L76.8679344,97.7191448 L76.8679344,84.8969379 C83.6040656,79.731869 88.2209836,72.5304724 89.4519344,64.3954034 C89.668459,62.9650241 89.792918,61.5073345 89.792918,60.0257483 C89.792918,51.0969724 85.7283934,43.0011621 79.1337705,37.0406793 C72.2066885,30.7831966 62.4869508,26.8829379 51.7152787,26.8829379 C44.8785574,26.8829379 38.4714754,28.4635241 32.925377,31.2099207 C35.8806603,28.7790602 24.4962623,20.3950241 24.4962623,20.3950241 L24.4962623,36.8768172 C19.4923279,41.3335241 15.9068852,47.0004207 14.415082,53.3398345 Z" id="Stroke-1"></path>
                <path d="M74.8251016,44.9222741 C74.1857574,44.3436362 73.5208393,43.785481 72.8354623,43.2495155 C70.0070033,41.0373776 66.7966426,39.1888086 63.3015607,37.7874466 C58.4664131,35.8467052 53.082282,34.7645328 47.4083148,34.7645328" id="Stroke-3"></path>
                <path d="M104,49.0732759 C104,57.288569 97.5537049,63.9778966 89.4519344,64.3943793" id="Stroke-5"></path>
                <path d="M57.4698885,8.32112069 C57.4698885,3.72615517 61.1917246,0 65.7813639,0 C70.3710033,0 74.0928393,3.72615517 74.0928393,8.32112069 C74.0928393,12.9160862 70.3710033,16.6422414 65.7813639,16.6422414 C61.1917246,16.6422414 57.4698885,12.9160862 57.4698885,8.32112069 L57.4698885,8.32112069 Z" id="Stroke-7"></path>
            </g>
        </g>
    </g>
</svg>