<?xml version="1.0" encoding="UTF-8"?>
<svg width="33px" height="34px" viewBox="0 0 33 34" version="1.1" xmlns="http://www.w3.org/2000/svg" xmlns:xlink="http://www.w3.org/1999/xlink">
    <!-- Generator: sketchtool 41 (35326) - http://www.bohemiancoding.com/sketch -->
    <title>72DF2E1D-A49F-41FE-913C-B997B673478F</title>
    <desc>Created with sketchtool.</desc>
    <defs></defs>
    <g id="Page-1" stroke="none" stroke-width="1" fill="none" fill-rule="evenodd">
        <g id="footer" transform="translate(-68.000000, -133.000000)">
            <g id="Group-18" transform="translate(68.000000, 133.006781)">
                <rect id="Rectangle-1-Copy-4" fill="#FFFFFF" x="0" y="0" width="33" height="33" rx="2"></rect>
                <g id="twitter" transform="translate(4.000000, 6.000000)" fill="#33494C">
                    <g id="svg3626">
                        <g id="layer1" transform="translate(0.067373, 0.011973)">
                            <path d="M7.70978114,20.4604032 C16.9436604,20.4604032 21.9929553,12.6172082 21.9929553,5.81612709 C21.9929553,5.59335352 21.9885297,5.3715851 21.9787835,5.15081931 C22.9589861,4.42430074 23.8109756,3.51765689 24.4828773,2.48557768 C23.5834195,2.89549913 22.615451,3.17145658 21.6000126,3.29588847 C22.6364936,2.65867783 23.4322048,1.65068357 23.8075501,0.449016352 C22.8376233,1.03856051 21.7634614,1.46704699 20.6198092,1.69834837 C19.7037131,0.697879286 18.3995482,0.0722102296 16.9554248,0.0722102296 C14.1831569,0.0722102296 11.9350015,2.37720298 11.9350015,5.21855434 C11.9350015,5.62245413 11.9790441,6.01531745 12.0651736,6.39212273 C7.8928258,6.17687686 4.19320485,4.12877564 1.71749491,1.01447724 C1.28636141,1.77511462 1.03776349,2.65867783 1.03776349,3.60144658 C1.03776349,5.38713888 1.92400763,6.96360528 3.27172577,7.88580291 C2.44812088,7.8597127 1.67443017,7.62790791 0.998123468,7.24207056 C0.997384498,7.26366536 0.997384498,7.28471885 0.997384498,7.30779865 C0.997384498,9.80044102 2.72778923,11.8816576 5.02488094,12.3532924 C4.60304615,12.4712017 4.15918922,12.5344203 3.70114158,12.5344203 C3.37815888,12.5344203 3.06349536,12.5018278 2.75764118,12.4415994 C3.39675467,14.4866902 5.24998945,15.9748496 7.44725116,16.0164953 C5.7290805,17.3972818 3.56460773,18.2196342 1.21221803,18.2196342 C0.80751011,18.2196342 0.407697463,18.1960325 0.0147350735,18.1483862 C2.23646493,19.6084502 4.87464576,20.4604032 7.7100406,20.4604032" id="path3611"></path>
                        </g>
                    </g>
                </g>
            </g>
        </g>
    </g>
</svg>