<?xml version="1.0" encoding="UTF-8"?>
<svg width="33px" height="34px" viewBox="0 0 33 34" version="1.1" xmlns="http://www.w3.org/2000/svg" xmlns:xlink="http://www.w3.org/1999/xlink">
    <!-- Generator: sketchtool 41 (35326) - http://www.bohemiancoding.com/sketch -->
    <title>39F5CC55-E7EB-400C-8573-F11F24A88B81</title>
    <desc>Created with sketchtool.</desc>
    <defs></defs>
    <g id="Page-1" stroke="none" stroke-width="1" fill="none" fill-rule="evenodd">
        <g id="footer" transform="translate(-164.000000, -133.000000)">
            <g id="Group-20" transform="translate(164.000000, 133.006781)">
                <g id="Group-16-Copy" fill="#FFFFFF">
                    <rect id="Rectangle-1-Copy-5" x="0" y="0" width="33" height="33" rx="2"></rect>
                </g>
                <g id="YouTube_light_color_icon" transform="translate(4.000000, 8.000000)">
                    <polyline id="Fill-1" fill="#DEDED9" points="16.4487439 9.14990234 10.3099976 5.14990234 17.3099976 8.71370745 16.4487439 9.14990234"></polyline>
                    <path d="M10.3157981,12.3195833 L10.3146018,5.12883357 L17.339909,8.73673588 L10.3157981,12.3195833 L10.3157981,12.3195833 Z M25.7403691,3.88313013 C25.7403691,3.88313013 25.486338,2.11954239 24.7067326,1.34291636 C23.7180479,0.323608793 22.6098311,0.318547708 22.1016163,0.258892045 C18.4632963,0 13.0056253,0 13.0056253,0 L12.9943238,0 C12.9943238,0 7.53678007,0 3.89833276,0.258892045 C3.39009252,0.318547708 2.28228303,0.323608793 1.29324196,1.34291636 C0.513687405,2.11954239 0.260012727,3.88313013 0.260012727,3.88313013 C0.260012727,3.88313013 0,5.95416628 0,8.02517737 L0,9.96675496 C0,12.037741 0.260012727,14.1087521 0.260012727,14.1087521 C0.260012727,14.1087521 0.513687405,15.8723649 1.29324196,16.6489909 C2.28228303,17.6683235 3.58145577,17.6360779 4.16010182,17.7429119 C6.24012727,17.9392419 13,18 13,18 C13,18 18.4632963,17.9919073 22.1016163,17.7330403 C22.6098311,17.6733596 23.7180479,17.6683235 24.7067326,16.6489909 C25.486338,15.8723649 25.7403691,14.1087521 25.7403691,14.1087521 C25.7403691,14.1087521 26,12.037741 26,9.96675496 L26,8.02517737 C26,5.95416628 25.7403691,3.88313013 25.7403691,3.88313013 L25.7403691,3.88313013 Z" id="Fill-3" fill="#33494C"></path>
                </g>
            </g>
        </g>
    </g>
</svg>